<svg width="15" height="14" viewBox="0 0 15 14" fill="none" xmlns="http://www.w3.org/2000/svg">
<path d="M1 4.83333H14M3.88889 0.5V1.94444M11.1111 0.5V1.94444M3.16667 7.72222H4.61111M3.16667 10.6111H4.61111M6.77778 7.72222H8.22222M6.77778 10.6111H8.22222M10.3889 7.72222H11.8333M10.3889 10.6111H11.8333M3.31111 13.5H11.6889C12.4978 13.5 12.9024 13.5 13.2113 13.3426C13.4831 13.2041 13.7041 12.9831 13.8426 12.7113C14 12.4024 14 11.9978 14 11.1889V4.25556C14 3.44659 14 3.04211 13.8426 2.73313C13.7041 2.46133 13.4831 2.24036 13.2113 2.10188C12.9024 1.94444 12.4978 1.94444 11.6889 1.94444H3.31111C2.50215 1.94444 2.09766 1.94444 1.78868 2.10188C1.51689 2.24036 1.29592 2.46133 1.15744 2.73313C1 3.04211 1 3.44659 1 4.25556V11.1889C1 11.9978 1 12.4024 1.15744 12.7113C1.29592 12.9831 1.51689 13.2041 1.78868 13.3426C2.09766 13.5 2.50214 13.5 3.31111 13.5Z" stroke="#677281" stroke-linecap="round" stroke-linejoin="round"/>
</svg>
