<svg width="14" height="14" viewBox="0 0 14 14" fill="none" xmlns="http://www.w3.org/2000/svg">
<path fill-rule="evenodd" clip-rule="evenodd" d="M4.19844 1.40039C4.01279 1.40039 3.83474 1.47414 3.70346 1.60542C3.57219 1.73669 3.49844 1.91474 3.49844 2.10039V2.80039H2.79844C2.42713 2.80039 2.07104 2.94789 1.80849 3.21044C1.54594 3.47299 1.39844 3.82909 1.39844 4.20039V11.2004C1.39844 11.5717 1.54594 11.9278 1.80849 12.1903C2.07104 12.4529 2.42713 12.6004 2.79844 12.6004H11.1984C11.5697 12.6004 11.9258 12.4529 12.1884 12.1903C12.4509 11.9278 12.5984 11.5717 12.5984 11.2004V4.20039C12.5984 3.82909 12.4509 3.47299 12.1884 3.21044C11.9258 2.94789 11.5697 2.80039 11.1984 2.80039H10.4984V2.10039C10.4984 1.91474 10.4247 1.73669 10.2934 1.60542C10.1621 1.47414 9.98409 1.40039 9.79844 1.40039C9.61279 1.40039 9.43474 1.47414 9.30346 1.60542C9.17219 1.73669 9.09844 1.91474 9.09844 2.10039V2.80039H4.89844V2.10039C4.89844 1.91474 4.82469 1.73669 4.69341 1.60542C4.56214 1.47414 4.38409 1.40039 4.19844 1.40039ZM4.19844 4.90039C4.01279 4.90039 3.83474 4.97414 3.70346 5.10542C3.57219 5.23669 3.49844 5.41474 3.49844 5.60039C3.49844 5.78604 3.57219 5.96409 3.70346 6.09537C3.83474 6.22664 4.01279 6.30039 4.19844 6.30039H9.79844C9.98409 6.30039 10.1621 6.22664 10.2934 6.09537C10.4247 5.96409 10.4984 5.78604 10.4984 5.60039C10.4984 5.41474 10.4247 5.23669 10.2934 5.10542C10.1621 4.97414 9.98409 4.90039 9.79844 4.90039H4.19844Z" fill="#00B768"/>
</svg>
