<svg width="175" height="207" viewBox="0 0 175 207" fill="none" xmlns="http://www.w3.org/2000/svg">
<path fill-rule="evenodd" clip-rule="evenodd" d="M62.6216 9.21936C78.9006 -7.05963 100.98 -16.2051 124.002 -16.2051C147.024 -16.2051 169.103 -7.05963 185.382 9.21936C201.661 25.4983 210.806 47.5774 210.806 70.5994C210.806 93.6213 201.661 115.7 185.382 131.979L124.002 193.359L62.6216 131.979C54.5605 123.919 48.1661 114.35 43.8034 103.818C39.4408 93.2867 37.1953 81.9988 37.1953 70.5994C37.1953 59.1999 39.4408 47.912 43.8034 37.3804C48.1661 26.8488 54.5605 17.2796 62.6216 9.21936ZM124.002 95.3994C130.579 95.3994 136.887 92.7865 141.538 88.1356C146.189 83.4847 148.802 77.1767 148.802 70.5994C148.802 64.022 146.189 57.714 141.538 53.0631C136.887 48.4122 130.579 45.7994 124.002 45.7994C117.424 45.7994 111.116 48.4122 106.465 53.0631C101.814 57.714 99.2016 64.022 99.2016 70.5994C99.2016 77.1767 101.814 83.4847 106.465 88.1356C111.116 92.7865 117.424 95.3994 124.002 95.3994Z" fill="#38755A" fill-opacity="0.06"/>
</svg>
