<svg width="11" height="14" viewBox="0 0 11 14" fill="none" xmlns="http://www.w3.org/2000/svg">
<g clip-path="url(#clip0_1_42167)">
<path d="M5.5 7C6.33354 7 7.13294 6.65759 7.72234 6.0481C8.31174 5.4386 8.64286 4.61195 8.64286 3.75C8.64286 2.88805 8.31174 2.0614 7.72234 1.4519C7.13294 0.84241 6.33354 0.5 5.5 0.5C4.66646 0.5 3.86706 0.84241 3.27766 1.4519C2.68826 2.0614 2.35714 2.88805 2.35714 3.75C2.35714 4.61195 2.68826 5.4386 3.27766 6.0481C3.86706 6.65759 4.66646 7 5.5 7ZM3.14286 8.40156C1.32589 8.95254 0 10.6893 0 12.7459C0 13.1623 0.326563 13.5 0.729241 13.5H10.2708C10.6734 13.5 11 13.1623 11 12.7459C11 10.6893 9.67411 8.95254 7.85714 8.40156V9.69141C8.53482 9.87168 9.03571 10.509 9.03571 11.2656V12.2812C9.03571 12.5047 8.85893 12.6875 8.64286 12.6875H8.25C8.03393 12.6875 7.85714 12.5047 7.85714 12.2812C7.85714 12.0578 8.03393 11.875 8.25 11.875V11.2656C8.25 10.8162 7.89888 10.4531 7.46429 10.4531C7.02969 10.4531 6.67857 10.8162 6.67857 11.2656V11.875C6.89464 11.875 7.07143 12.0578 7.07143 12.2812C7.07143 12.5047 6.89464 12.6875 6.67857 12.6875H6.28571C6.06964 12.6875 5.89286 12.5047 5.89286 12.2812V11.2656C5.89286 10.509 6.39375 9.87168 7.07143 9.69141V8.2416C6.92411 8.22637 6.77433 8.21875 6.6221 8.21875H4.3779C4.22567 8.21875 4.07589 8.22637 3.92857 8.2416V9.90215C4.49576 10.0773 4.91071 10.6207 4.91071 11.2656C4.91071 12.0502 4.29442 12.6875 3.53571 12.6875C2.77701 12.6875 2.16071 12.0502 2.16071 11.2656C2.16071 10.6207 2.57567 10.0773 3.14286 9.90215V8.40156ZM3.53571 11.875C3.692 11.875 3.84189 11.8108 3.9524 11.6965C4.06291 11.5822 4.125 11.4272 4.125 11.2656C4.125 11.104 4.06291 10.949 3.9524 10.8347C3.84189 10.7205 3.692 10.6562 3.53571 10.6562C3.37943 10.6562 3.22954 10.7205 3.11903 10.8347C3.00851 10.949 2.94643 11.104 2.94643 11.2656C2.94643 11.4272 3.00851 11.5822 3.11903 11.6965C3.22954 11.8108 3.37943 11.875 3.53571 11.875Z" fill="#00B768"/>
</g>
<defs>
<clipPath id="clip0_1_42167">
<rect width="11" height="13" fill="white" transform="translate(0 0.5)"/>
</clipPath>
</defs>
</svg>
