<svg width="24" height="24" viewBox="0 0 24 24" fill="none" xmlns="http://www.w3.org/2000/svg">
<path fill-rule="evenodd" clip-rule="evenodd" d="M13.5621 1.25559C13.8057 1.3322 14.0185 1.48452 14.1696 1.69041C14.3207 1.8963 14.4021 2.14502 14.4021 2.40039V8.40039H19.2021C19.4216 8.40029 19.6369 8.4604 19.8246 8.57418C20.0123 8.68795 20.1653 8.85103 20.2667 9.04568C20.3682 9.24032 20.4143 9.45906 20.4001 9.67811C20.3859 9.89715 20.3119 10.1081 20.1861 10.288L11.7861 22.288C11.6399 22.4974 11.4307 22.6548 11.1889 22.7371C10.9471 22.8194 10.6854 22.8225 10.4417 22.7458C10.1981 22.6691 9.9853 22.5166 9.83429 22.3106C9.68328 22.1046 9.60193 21.8558 9.6021 21.6004V15.6004H4.8021C4.58259 15.6005 4.36727 15.5404 4.17956 15.4266C3.99184 15.3128 3.83893 15.1497 3.73747 14.9551C3.636 14.7605 3.58987 14.5417 3.60408 14.3227C3.6183 14.1036 3.69232 13.8927 3.8181 13.7128L12.2181 1.71279C12.3645 1.50373 12.5738 1.3468 12.8155 1.2648C13.0572 1.18279 13.3187 1.17999 13.5621 1.25679" fill="white"/>
</svg>
