<svg width="21" height="20" viewBox="0 0 21 20" fill="none" xmlns="http://www.w3.org/2000/svg">
<g clip-path="url(#clip0_24_8811)">
<path d="M10.0053 0.628664C8.11076 0.749758 6.3217 1.44898 4.79045 2.65991C4.39201 2.97241 3.64592 3.71851 3.32561 4.12085C2.41936 5.26538 1.75139 6.69116 1.47014 8.06616C1.28264 8.98804 1.23576 10.281 1.35295 11.1912C1.76311 14.3279 3.70061 17.0427 6.5092 18.4177C7.78264 19.0388 8.93498 19.324 10.3569 19.363C11.1811 19.3865 11.7826 19.3435 12.4584 19.2146C16.4897 18.449 19.5873 15.0701 20.0092 10.9841C20.0756 10.3318 20.0365 9.00757 19.9311 8.41773C19.3959 5.41382 17.5522 2.92945 14.8647 1.5896C13.7123 1.01148 12.5834 0.710695 11.2553 0.624758C10.6381 0.585695 10.6576 0.585695 10.0053 0.628664ZM11.603 3.10523C13.1928 3.33179 14.6264 4.07398 15.7201 5.23023C18.3061 7.98023 18.2436 12.2341 15.5717 14.9021C13.9975 16.4802 11.724 17.2185 9.55608 16.8552C6.09123 16.2771 3.58342 13.2107 3.72795 9.72632C3.75139 9.15991 3.80998 8.75366 3.93108 8.28101C4.63811 5.55835 6.91545 3.51538 9.70451 3.10913C10.1928 3.03491 11.1069 3.03491 11.603 3.10523Z" fill="white"/>
<path d="M10.0058 4.14359C9.33 4.21781 8.67766 4.41312 8.04485 4.72562C5.41985 6.03422 4.16203 9.05375 5.08781 11.8467C5.83781 14.1162 7.87688 15.6983 10.248 15.8545C11.9941 15.9717 13.5839 15.3819 14.8144 14.1631C16.4042 12.5928 16.955 10.2764 16.2519 8.1514C15.373 5.49515 12.787 3.835 10.0058 4.14359ZM10.9042 5.54203C10.9784 5.58109 11.0761 5.67484 11.1191 5.74515C11.1933 5.87015 11.1972 5.96 11.2089 7.66312L11.2206 9.45218H12.9863C15.0058 9.45218 14.9511 9.44437 15.1152 9.7725C15.1933 9.92875 15.2011 9.97172 15.162 10.1084C15.1034 10.335 14.9081 10.4952 14.6464 10.5264C14.5331 10.5381 13.5566 10.5459 12.4784 10.5381C10.5722 10.5264 10.5175 10.5225 10.412 10.4444C10.3534 10.4014 10.2675 10.3155 10.2245 10.2569C10.1425 10.1514 10.1425 10.1006 10.1308 8.05375L10.123 5.95609L10.2089 5.78422C10.3573 5.49515 10.6386 5.3975 10.9042 5.54203Z" fill="white"/>
</g>
<defs>
<clipPath id="clip0_24_8811">
<rect width="20" height="20" fill="white" transform="translate(0.667969)"/>
</clipPath>
</defs>
</svg>
