<svg width="21" height="20" viewBox="0 0 21 20" fill="none" xmlns="http://www.w3.org/2000/svg">
<g clip-path="url(#clip0_24_8821)">
<path d="M4.52344 0.0546875C4.12891 0.183594 3.77734 0.496094 3.58203 0.894531C3.49609 1.07422 3.47656 1.17578 3.46484 1.49219L3.44922 1.875H2.66016C2.05469 1.875 1.82031 1.89062 1.65625 1.9375C1.07812 2.10547 0.585938 2.59375 0.40625 3.16797C0.339844 3.37891 0.332031 3.53906 0.332031 4.6875C0.332031 5.83594 0.339844 5.99609 0.40625 6.20703C0.488281 6.47266 0.660156 6.76172 0.839844 6.93359L0.957031 7.04688V12.7578C0.957031 18.2539 0.960938 18.4805 1.03125 18.707C1.21094 19.2812 1.70312 19.7695 2.28125 19.9375C2.47266 19.9922 3.29297 20 10.332 20C17.3711 20 18.1914 19.9922 18.3828 19.9375C18.9609 19.7695 19.4531 19.2812 19.6328 18.707C19.7031 18.4805 19.707 18.2539 19.707 12.7578V7.04688L19.8242 6.93359C20.0039 6.76172 20.1758 6.47266 20.2578 6.20703C20.3242 5.99609 20.332 5.83594 20.332 4.69141C20.332 3.64062 20.3203 3.375 20.2695 3.19922C20.1016 2.62109 19.6133 2.12891 19.0391 1.94922C18.8398 1.88672 18.6758 1.875 18.0078 1.875H17.2148L17.1992 1.49219C17.1875 1.16797 17.168 1.07422 17.0703 0.878906C16.9258 0.578125 16.6289 0.28125 16.3281 0.132812C16.1094 0.0273438 16.0625 0.0195312 15.6445 0.0195312C15.2266 0.0195312 15.1797 0.0273438 14.9609 0.132812C14.6602 0.28125 14.3633 0.578125 14.2188 0.878906C14.1211 1.07422 14.1016 1.16797 14.0898 1.49219L14.0742 1.875H10.332H6.58984L6.57422 1.49219C6.5625 1.16797 6.54297 1.07422 6.44531 0.878906C6.30078 0.578125 6 0.28125 5.70312 0.136719C5.5 0.0351562 5.42188 0.0195312 5.07812 0.0117188C4.82812 0.00390625 4.62891 0.0195312 4.52344 0.0546875ZM3.46484 3.50781C3.47656 3.83203 3.49609 3.92578 3.59375 4.12109C3.73828 4.42188 4.03906 4.71875 4.33594 4.86719C4.55469 4.97266 4.60156 4.98047 5.01953 4.98047C5.4375 4.98047 5.48438 4.97266 5.70312 4.86719C6.00391 4.71875 6.30078 4.42188 6.44531 4.12109C6.54297 3.92578 6.5625 3.83203 6.57422 3.50781L6.58984 3.125H10.332H14.0742L14.0898 3.50781C14.1016 3.83203 14.1211 3.92578 14.2188 4.12109C14.3633 4.42188 14.6641 4.71875 14.9609 4.86719C15.1797 4.97266 15.2266 4.98047 15.6445 4.98047C16.0625 4.98047 16.1094 4.97266 16.3281 4.86719C16.6289 4.71875 16.9258 4.42188 17.0703 4.12109C17.168 3.92578 17.1875 3.83203 17.1992 3.50391L17.2148 3.11719L17.9062 3.13281C18.6719 3.14453 18.7812 3.17578 18.9531 3.43359C19.0703 3.60938 19.0898 3.83203 19.0742 4.86328C19.0625 5.67578 19.0547 5.77344 18.9844 5.89453C18.8828 6.06641 18.7422 6.16797 18.5508 6.21094C18.3477 6.26172 2.31641 6.26172 2.11328 6.21094C1.92188 6.16797 1.78125 6.06641 1.67969 5.89453C1.60547 5.76953 1.60156 5.69141 1.60156 4.6875C1.60156 3.68359 1.60547 3.60547 1.67969 3.48047C1.77734 3.31641 1.92188 3.20312 2.09375 3.16406C2.16797 3.14844 2.5 3.13281 2.83594 3.12891L3.44922 3.125L3.46484 3.50781ZM5.60547 8.85156C5.91406 9.03125 5.97266 9.25781 5.95312 10.1836C5.9375 10.6797 5.92578 10.7812 5.85547 10.8984C5.67578 11.207 5.44922 11.2656 4.52344 11.2461C4.02734 11.2305 3.92578 11.2188 3.80859 11.1484C3.5 10.9688 3.44141 10.7422 3.46094 9.81641C3.47656 9.1875 3.51562 9.05859 3.73438 8.89844C3.89844 8.77344 4.05859 8.75391 4.78516 8.76172C5.39453 8.76953 5.48438 8.77734 5.60547 8.85156ZM9.35547 8.85156C9.66406 9.03125 9.72266 9.25781 9.70312 10.1836C9.6875 10.6797 9.67578 10.7812 9.60547 10.8984C9.42578 11.207 9.19922 11.2656 8.27344 11.2461C7.77734 11.2305 7.67578 11.2188 7.55859 11.1484C7.25 10.9688 7.19141 10.7422 7.21094 9.81641C7.22656 9.1875 7.26562 9.05859 7.48438 8.89844C7.64844 8.77344 7.80859 8.75391 8.53516 8.76172C9.14453 8.76953 9.23438 8.77734 9.35547 8.85156ZM13.1055 8.85156C13.4141 9.03125 13.4727 9.25781 13.4531 10.1836C13.4375 10.6797 13.4258 10.7812 13.3555 10.8984C13.1758 11.207 12.9492 11.2656 12.0234 11.2461C11.5273 11.2305 11.4258 11.2188 11.3086 11.1484C11 10.9688 10.9414 10.7422 10.9609 9.81641C10.9766 9.1875 11.0156 9.05859 11.2344 8.89844C11.3984 8.77344 11.5586 8.75391 12.2852 8.76172C12.8945 8.76953 12.9844 8.77734 13.1055 8.85156ZM16.8555 8.85156C17.1641 9.03125 17.2227 9.25781 17.2031 10.1836C17.1875 10.6797 17.1758 10.7812 17.1055 10.8984C16.9258 11.207 16.6992 11.2656 15.7734 11.2461C15.2773 11.2305 15.1758 11.2188 15.0586 11.1484C14.75 10.9688 14.6914 10.7422 14.7109 9.81641C14.7266 9.1875 14.7656 9.05859 14.9844 8.89844C15.1484 8.77344 15.3086 8.75391 16.0352 8.76172C16.6445 8.76953 16.7344 8.77734 16.8555 8.85156ZM5.60547 11.9766C5.91406 12.1562 5.97266 12.3828 5.95312 13.3086C5.9375 13.8047 5.92578 13.9062 5.85547 14.0234C5.67578 14.332 5.44922 14.3906 4.52344 14.3711C4.02734 14.3555 3.92578 14.3438 3.80859 14.2734C3.5 14.0938 3.44141 13.8672 3.46094 12.9414C3.47656 12.3125 3.51562 12.1836 3.73438 12.0234C3.89844 11.8984 4.05859 11.8789 4.78516 11.8867C5.39453 11.8945 5.48438 11.9023 5.60547 11.9766ZM9.35547 11.9766C9.66406 12.1562 9.72266 12.3828 9.70312 13.3086C9.6875 13.8047 9.67578 13.9062 9.60547 14.0234C9.42578 14.332 9.19922 14.3906 8.27344 14.3711C7.77734 14.3555 7.67578 14.3438 7.55859 14.2734C7.25 14.0938 7.19141 13.8672 7.21094 12.9414C7.22656 12.3125 7.26562 12.1836 7.48438 12.0234C7.64844 11.8984 7.80859 11.8789 8.53516 11.8867C9.14453 11.8945 9.23438 11.9023 9.35547 11.9766ZM13.1055 11.9766C13.4141 12.1562 13.4727 12.3828 13.4531 13.3086C13.4375 13.8047 13.4258 13.9062 13.3555 14.0234C13.1758 14.332 12.9492 14.3906 12.0234 14.3711C11.5273 14.3555 11.4258 14.3438 11.3086 14.2734C11 14.0938 10.9414 13.8672 10.9609 12.9414C10.9766 12.3125 11.0156 12.1836 11.2344 12.0234C11.3984 11.8984 11.5586 11.8789 12.2852 11.8867C12.8945 11.8945 12.9844 11.9023 13.1055 11.9766ZM16.8555 11.9766C17.1641 12.1562 17.2227 12.3828 17.2031 13.3086C17.1875 13.8047 17.1758 13.9062 17.1055 14.0234C16.9258 14.332 16.6992 14.3906 15.7734 14.3711C15.2773 14.3555 15.1758 14.3438 15.0586 14.2734C14.75 14.0938 14.6914 13.8672 14.7109 12.9414C14.7266 12.3125 14.7656 12.1836 14.9844 12.0234C15.1484 11.8984 15.3086 11.8789 16.0352 11.8867C16.6445 11.8945 16.7344 11.9023 16.8555 11.9766ZM5.60547 15.1016C5.91406 15.2812 5.97266 15.5078 5.95312 16.4336C5.9375 16.9297 5.92578 17.0312 5.85547 17.1484C5.67578 17.457 5.44922 17.5156 4.52344 17.4961C4.02734 17.4805 3.92578 17.4688 3.80859 17.3984C3.5 17.2188 3.44141 16.9922 3.46094 16.0664C3.47656 15.4375 3.51562 15.3086 3.73438 15.1484C3.89844 15.0234 4.05859 15.0039 4.78516 15.0117C5.39453 15.0195 5.48438 15.0273 5.60547 15.1016ZM9.35547 15.1016C9.66406 15.2812 9.72266 15.5078 9.70312 16.4336C9.6875 16.9297 9.67578 17.0312 9.60547 17.1484C9.42578 17.457 9.19922 17.5156 8.27344 17.4961C7.77734 17.4805 7.67578 17.4688 7.55859 17.3984C7.25 17.2188 7.19141 16.9922 7.21094 16.0664C7.22656 15.4375 7.26562 15.3086 7.48438 15.1484C7.64844 15.0234 7.80859 15.0039 8.53516 15.0117C9.14453 15.0195 9.23438 15.0273 9.35547 15.1016Z" fill="white"/>
</g>
<defs>
<clipPath id="clip0_24_8821">
<rect width="20" height="20" fill="white" transform="translate(0.332031)"/>
</clipPath>
</defs>
</svg>
