<svg width="14" height="15" viewBox="0 0 14 15" fill="none" xmlns="http://www.w3.org/2000/svg">
<path d="M11.082 2.25H10.5078C10.918 2.40586 11.1312 2.81328 11.1312 3.41758V11.5852C11.1312 12.1895 10.9398 12.6051 10.5078 12.7527H11.082C11.7301 12.7527 12.2523 12.2277 12.2523 11.5852V3.41758C12.2523 2.775 11.7301 2.25 11.082 2.25Z" fill="#008048"/>
<path d="M9.44727 2.25547C9.40898 2.25273 9.3707 2.25 9.33242 2.25H2.91758C2.275 2.25 1.75 2.775 1.75 3.41758V11.5852C1.75 12.2277 2.275 12.7527 2.91758 12.7527H9.33516C9.37344 12.7527 9.41172 12.75 9.45 12.7473C10.0379 12.6898 10.5027 12.1895 10.5027 11.5852V3.41758C10.5 2.81328 10.0352 2.31289 9.44727 2.25547ZM5.6875 7.5L4.15625 6.625L2.625 7.5V3.125H5.6875V7.5Z" fill="#008048"/>
</svg>
