<svg width="12" height="14" viewBox="0 0 12 14" fill="none" xmlns="http://www.w3.org/2000/svg">
<path fill-rule="evenodd" clip-rule="evenodd" d="M2.28788 2.03777C3.2725 1.05315 4.60792 0.5 6.00038 0.5C7.39284 0.5 8.72826 1.05315 9.71288 2.03777C10.6975 3.02238 11.2506 4.35781 11.2506 5.75027C11.2506 7.14273 10.6975 8.47815 9.71288 9.46277L6.00038 13.1753L2.28788 9.46277C1.80031 8.97525 1.41355 8.39647 1.14968 7.75948C0.885813 7.12249 0.75 6.43975 0.75 5.75027C0.75 5.06078 0.885813 4.37805 1.14968 3.74106C1.41355 3.10406 1.80031 2.52528 2.28788 2.03777ZM6.00038 7.25027C6.3982 7.25027 6.77973 7.09223 7.06104 6.81093C7.34234 6.52962 7.50038 6.14809 7.50038 5.75027C7.50038 5.35244 7.34234 4.97091 7.06104 4.68961C6.77973 4.4083 6.3982 4.25027 6.00038 4.25027C5.60255 4.25027 5.22102 4.4083 4.93972 4.68961C4.65841 4.97091 4.50038 5.35244 4.50038 5.75027C4.50038 6.14809 4.65841 6.52962 4.93972 6.81093C5.22102 7.09223 5.60255 7.25027 6.00038 7.25027Z" fill="#008048"/>
</svg>
