<svg width="147" height="25" viewBox="0 0 147 25" fill="none" xmlns="http://www.w3.org/2000/svg">
<path d="M15.402 0.0299985L25.364 24H19.584L12.988 7.374L6.46 24H0.816L10.778 0.0299985H15.402ZM36.5548 24.408C33.7668 24.408 31.4321 23.5013 29.5508 21.688C27.6694 19.8747 26.7288 17.642 26.7288 14.99V14.922C26.7288 12.27 27.6694 10.026 29.5508 8.19C31.4548 6.354 33.8121 5.436 36.6228 5.436C39.4108 5.436 41.7454 6.34267 43.6268 8.156C45.5081 9.96933 46.4488 12.202 46.4488 14.854V14.922C46.4488 17.574 45.4968 19.818 43.5928 21.654C41.7114 23.49 39.3654 24.408 36.5548 24.408ZM36.6228 19.954C38.0508 19.954 39.1954 19.478 40.0568 18.526C40.9181 17.574 41.3488 16.3953 41.3488 14.99V14.922C41.3488 13.5393 40.8954 12.3607 39.9888 11.386C39.1048 10.3887 37.9601 9.89 36.5548 9.89C35.1268 9.89 33.9821 10.366 33.1208 11.318C32.2594 12.27 31.8288 13.4487 31.8288 14.854V14.922C31.8288 16.3047 32.2708 17.4947 33.1548 18.492C34.0614 19.4667 35.2174 19.954 36.6228 19.954ZM50.1909 24V5.776H64.1309V10.434H55.3589V24H50.1909ZM75.6017 24.408C72.8137 24.408 70.479 23.5013 68.5977 21.688C66.7163 19.8747 65.7757 17.642 65.7757 14.99V14.922C65.7757 12.27 66.7163 10.026 68.5977 8.19C70.5017 6.354 72.859 5.436 75.6697 5.436C78.4577 5.436 80.7923 6.34267 82.6737 8.156C84.555 9.96933 85.4957 12.202 85.4957 14.854V14.922C85.4957 17.574 84.5437 19.818 82.6397 21.654C80.7583 23.49 78.4123 24.408 75.6017 24.408ZM75.6697 19.954C77.0977 19.954 78.2423 19.478 79.1037 18.526C79.965 17.574 80.3957 16.3953 80.3957 14.99V14.922C80.3957 13.5393 79.9423 12.3607 79.0357 11.386C78.1517 10.3887 77.007 9.89 75.6017 9.89C74.1737 9.89 73.029 10.366 72.1677 11.318C71.3063 12.27 70.8757 13.4487 70.8757 14.854V14.922C70.8757 16.3047 71.3177 17.4947 72.2017 18.492C73.1083 19.4667 74.2643 19.954 75.6697 19.954ZM93.2025 24V10.366H87.2865V5.776H104.287V10.366H98.3705V24H93.2025ZM107.832 24V5.776H112.966V15.806L120.072 5.776H124.934V24H119.8V13.596L112.422 24H107.832ZM129.546 24V5.776H146.648V24H141.48V10.434H134.714V24H129.546Z" fill="white"/>
</svg>
