<svg width="14" height="14" viewBox="0 0 14 14" fill="none" xmlns="http://www.w3.org/2000/svg">
<g clip-path="url(#clip0_1_41438)">
<path d="M10.6887 13.1247C10.155 13.1247 9.40521 12.9317 8.28247 12.3044C6.9172 11.5388 5.86118 10.832 4.50329 9.47764C3.19407 8.16924 2.55696 7.32213 1.66528 5.69955C0.65794 3.86752 0.829659 2.90721 1.02161 2.49678C1.25021 2.00623 1.58763 1.71283 2.02376 1.42162C2.27148 1.25932 2.53363 1.12019 2.80689 1.006C2.83423 0.994238 2.85966 0.983028 2.88235 0.97291C3.01771 0.911934 3.22278 0.819785 3.48255 0.918223C3.65591 0.983301 3.81067 1.11647 4.05294 1.35572C4.54978 1.84572 5.22872 2.93701 5.47919 3.47295C5.64735 3.83416 5.75864 4.0726 5.75892 4.34002C5.75892 4.65311 5.60142 4.89455 5.41028 5.15514C5.37446 5.20408 5.33892 5.25084 5.30446 5.29623C5.09638 5.56967 5.05071 5.64869 5.08079 5.78979C5.14177 6.07334 5.59649 6.91744 6.3438 7.66311C7.0911 8.40877 7.91087 8.83478 8.19552 8.89549C8.34263 8.92693 8.42329 8.87936 8.70548 8.66389C8.74595 8.63299 8.78751 8.601 8.83099 8.569C9.12247 8.35217 9.35271 8.19877 9.65841 8.19877H9.66005C9.9261 8.19877 10.1539 8.31416 10.5312 8.50447C11.0234 8.75275 12.1475 9.42295 12.6405 9.92033C12.8803 10.1621 13.014 10.3163 13.0794 10.4894C13.1778 10.7499 13.0851 10.9542 13.0247 11.0909C13.0146 11.1136 13.0034 11.1385 12.9916 11.1661C12.8765 11.4389 12.7366 11.7005 12.5735 11.9476C12.2829 12.3824 11.9884 12.719 11.4967 12.9478C11.2443 13.0673 10.968 13.1278 10.6887 13.1247Z" fill="#008048"/>
</g>
<defs>
<clipPath id="clip0_1_41438">
<rect width="14" height="14" fill="white"/>
</clipPath>
</defs>
</svg>
