<svg width="16" height="16" viewBox="0 0 16 16" fill="none" xmlns="http://www.w3.org/2000/svg">
<g clip-path="url(#clip0_1_43600)">
<path d="M13.5772 4.6H12.1V3.0322C12.1 1.9114 11.2156 1 10.0918 1H6.3085C5.1841 1 4.3 1.9114 4.3 3.0322V4.6H2.8225C1.8157 4.6 1 5.3773 1 6.3811V13.2832C1 14.2867 1.8157 15.1 2.8225 15.1H13.5772C14.5837 15.1 15.4 14.2867 15.4 13.2829V6.3811C15.4 5.3773 14.5837 4.6 13.5772 4.6ZM5.5 3.0322C5.5 2.6125 5.8876 2.2 6.3085 2.2H10.0918C10.5115 2.2 10.9 2.6125 10.9 3.0322V4.6H5.5V3.0322ZM11.5 11.2H9.4V13.3H7V11.2H4.9V8.8H7V6.7H9.4V8.8H11.5V11.2Z" fill="#008048"/>
</g>
<defs>
<clipPath id="clip0_1_43600">
<rect width="15" height="15" fill="white" transform="translate(0.5 0.5)"/>
</clipPath>
</defs>
</svg>
