<svg width="16" height="14" viewBox="0 0 16 14" fill="none" xmlns="http://www.w3.org/2000/svg">
<g clip-path="url(#clip0_1_43606)">
<path d="M1.33333 0C0.597222 0 0 0.587891 0 1.3125V7H4C4.24444 7 4.44444 7.19688 4.44444 7.4375C4.44444 7.67812 4.24444 7.875 4 7.875H0V9.625H4C4.24444 9.625 4.44444 9.82187 4.44444 10.0625C4.44444 10.3031 4.24444 10.5 4 10.5H0V12.6875C0 13.4121 0.597222 14 1.33333 14H7.38611C7.21111 13.7211 7.11111 13.393 7.11111 13.0402C7.11111 11.7578 7.82778 10.6395 8.88889 10.0543V1.3125C8.88889 0.587891 8.29167 0 7.55556 0H1.33333ZM4.22222 1.75H4.66667C4.91111 1.75 5.11111 1.94687 5.11111 2.1875V2.84375H5.77778C6.02222 2.84375 6.22222 3.04063 6.22222 3.28125V3.71875C6.22222 3.95937 6.02222 4.15625 5.77778 4.15625H5.11111V4.8125C5.11111 5.05312 4.91111 5.25 4.66667 5.25H4.22222C3.97778 5.25 3.77778 5.05312 3.77778 4.8125V4.15625H3.11111C2.86667 4.15625 2.66667 3.95937 2.66667 3.71875V3.28125C2.66667 3.04063 2.86667 2.84375 3.11111 2.84375H3.77778V2.1875C3.77778 1.94687 3.97778 1.75 4.22222 1.75ZM14.2222 7.4375C14.2222 6.85734 13.9881 6.30094 13.5713 5.8907C13.1546 5.48047 12.5894 5.25 12 5.25C11.4106 5.25 10.8454 5.48047 10.4287 5.8907C10.0119 6.30094 9.77778 6.85734 9.77778 7.4375C9.77778 8.01766 10.0119 8.57406 10.4287 8.9843C10.8454 9.39453 11.4106 9.625 12 9.625C12.5894 9.625 13.1546 9.39453 13.5713 8.9843C13.9881 8.57406 14.2222 8.01766 14.2222 7.4375ZM8 13.0457C8 13.5734 8.43333 14 8.96944 14H15.0306C15.5667 14 16 13.5734 16 13.0457C16 11.6402 14.8417 10.5 13.4139 10.5H10.5861C9.15833 10.5 8 11.6402 8 13.0457Z" fill="#008048"/>
</g>
<defs>
<clipPath id="clip0_1_43606">
<rect width="16" height="14" fill="white"/>
</clipPath>
</defs>
</svg>
