<svg width="40" height="40" viewBox="0 0 40 40" fill="none" xmlns="http://www.w3.org/2000/svg">
<path d="M27.8906 5.53906C25.5469 6.17188 19.3125 7.85156 14.0312 9.26563L4.42969 11.8359L9.03125 11.8594L13.625 11.875L21.5 9.76563C25.8281 8.60938 29.4453 7.65625 29.5547 7.65625C29.7734 7.65625 30.0234 7.91406 30.1406 8.25781C30.2812 8.67969 30.6172 9.04688 31.0547 9.26563C31.4062 9.42969 31.5703 9.46094 32.0469 9.45313C32.3594 9.44531 32.6797 9.4375 32.75 9.44531C32.9609 9.46094 33.1094 9.75781 33.3281 10.5547C33.4375 10.9609 33.5547 11.4219 33.6016 11.5781L33.6797 11.875H34.9297C36.0859 11.875 36.1797 11.8672 36.1406 11.7344C36.125 11.6641 35.75 10.2734 35.3203 8.65625C34.8828 7.03906 34.4922 5.61719 34.4531 5.5C34.3047 5.125 34.0547 4.84375 33.6484 4.60938C32.9297 4.19531 32.75 4.22656 27.8906 5.53906Z" fill="#008048"/>
<path d="M23.7504 10.3594C20.805 11.1484 18.3675 11.8125 18.3207 11.8281C18.2816 11.8516 21.4457 11.8672 25.3597 11.8672L32.4847 11.875L32.3207 11.2578L32.1566 10.6406L31.641 10.6094C30.7504 10.5625 29.93 10.0391 29.2191 9.07812C29.1019 8.92188 29.0394 8.9375 23.7504 10.3594Z" fill="#008048"/>
<path d="M2.93004 13.2734C2.75817 13.3516 2.50817 13.5391 2.36754 13.6797C1.84411 14.2344 1.87536 13.6328 1.87536 23.1406C1.87536 31.3672 1.88317 31.7734 2.02379 32.0703C2.20348 32.4531 2.60192 32.8438 2.98473 33C3.24254 33.1094 5.07067 33.125 20.0004 33.125C34.93 33.125 36.7582 33.1094 37.016 33C37.3988 32.8438 37.7972 32.4531 37.9769 32.0703C38.1175 31.7734 38.1254 31.3672 38.1254 23.125C38.1254 14.8828 38.1175 14.4766 37.9769 14.1797C37.7972 13.7969 37.3988 13.4062 37.016 13.25C36.7582 13.1406 34.93 13.125 19.9847 13.125C3.8441 13.125 3.23473 13.1328 2.93004 13.2734ZM32.6879 15.7344C32.9613 15.8438 33.1254 16.1562 33.1254 16.5547C33.1332 17.25 34.0238 18.125 34.7269 18.125C35.1019 18.125 35.4457 18.3281 35.5394 18.5938C35.68 19 35.6566 27.3438 35.516 27.6875C35.4066 27.9531 35.0941 28.125 34.7113 28.125C34.0238 28.125 33.1332 29.0078 33.1254 29.6953C33.1254 30.0938 32.9613 30.4062 32.6879 30.5156C32.2972 30.6797 7.70348 30.6797 7.31286 30.5156C7.03942 30.4062 6.87536 30.0938 6.87536 29.6953C6.86754 29.0078 5.97692 28.125 5.28942 28.125C4.90661 28.125 4.59411 27.9531 4.48473 27.6875C4.34411 27.3438 4.32067 19 4.46129 18.5938C4.56286 18.3203 4.89879 18.125 5.28942 18.125C5.99254 18.1172 6.87536 17.2344 6.87536 16.5391C6.87536 16.1719 7.04723 15.8438 7.29723 15.7344C7.66442 15.5781 32.305 15.5703 32.6879 15.7344Z" fill="#008048"/>
<path d="M7.96875 17.0156C7.96875 17.3047 7.49219 18.1172 7.10938 18.4688C6.71875 18.8281 6.03125 19.2188 5.76562 19.2188C5.63281 19.2188 5.625 19.4609 5.625 23.125C5.625 26.7891 5.63281 27.0312 5.76562 27.0312C6.03125 27.0312 6.71875 27.4219 7.10938 27.7812C7.49219 28.1328 7.96875 28.9453 7.96875 29.2344C7.96875 29.3672 8.36719 29.375 20 29.375C31.6328 29.375 32.0312 29.3672 32.0312 29.2344C32.0312 28.9453 32.5078 28.1328 32.8984 27.7734C33.2344 27.4609 33.7266 27.1797 34.2422 27.0078C34.3672 26.9609 34.375 26.7031 34.375 23.0859C34.375 19.4531 34.3672 19.2188 34.2422 19.2188C33.9688 19.2188 33.2812 18.8281 32.8906 18.4688C32.5078 18.1172 32.0312 17.3047 32.0312 17.0156C32.0312 16.8828 31.6328 16.875 20 16.875C8.36719 16.875 7.96875 16.8828 7.96875 17.0156ZM21.2109 18.3281C22.8828 18.7188 24.3672 20.2031 24.8047 21.9141C24.9609 22.5234 24.9609 23.7344 24.8047 24.3281C24.0469 27.2031 20.9609 28.7969 18.2188 27.7344C16.7734 27.1797 15.5938 25.8438 15.1953 24.3359C15.0469 23.7422 15.0469 22.5078 15.1953 21.9141C15.5938 20.4062 16.7734 19.0703 18.2188 18.5156C19.2031 18.1328 20.1406 18.0781 21.2109 18.3281Z" fill="#008048"/>
<path d="M18.8105 19.5234C17.6777 19.8906 16.709 20.8828 16.373 22.0234C16.209 22.5781 16.209 23.6719 16.373 24.2266C16.709 25.3828 17.6855 26.3672 18.834 26.7266C19.8418 27.0391 21.1777 26.875 22.0215 26.3359C23.1309 25.6172 23.7637 24.4609 23.7637 23.125C23.7637 21.7891 23.1309 20.6328 22.0215 19.9141C21.1777 19.375 19.8027 19.2109 18.8105 19.5234Z" fill="#008048"/>
</svg>
