<svg width="32" height="32" viewBox="0 0 32 32" fill="none" xmlns="http://www.w3.org/2000/svg">
<g clip-path="url(#clip0_1_46392)">
<path d="M21.8145 0.131252C21.2332 0.212502 20.9207 0.350002 19.5394 1.14375C9.28945 7.03125 2.18945 11.175 2.1332 11.2938C2.05195 11.475 2.1332 11.7188 2.3082 11.8125C2.3957 11.8563 2.5957 11.8563 2.9832 11.8125C3.72695 11.7313 25.7707 11.725 26.5145 11.8125C27.5082 11.925 28.3082 12.3125 29.0019 13C29.7644 13.7688 30.1019 14.5313 30.2019 15.75C30.2394 16.1813 30.2957 16.5688 30.3332 16.6063C30.3644 16.65 30.5019 16.6875 30.6332 16.6875C30.8519 16.6875 30.9019 16.6563 31.1332 16.3625C31.9519 15.3313 32.1144 13.8125 31.5207 12.6625C31.4207 12.4813 29.9519 9.9125 28.2519 6.9625C25.2832 1.8125 25.1395 1.575 24.6894 1.11875C23.902 0.318752 22.902 -0.0187473 21.8145 0.131252ZM26.202 5.09375C26.7145 5.98125 27.1082 6.725 27.0832 6.75C27.0582 6.775 25.3895 7.7375 23.3895 8.9L19.7395 11L15.9457 10.9875L12.1519 10.9688L18.6582 7.20625C22.2332 5.1375 25.1832 3.45625 25.2145 3.4625C25.2457 3.46875 25.6894 4.2 26.202 5.09375Z" fill="#008048"/>
<path d="M2.44375 12.6C1.3625 12.8875 0.425 13.8187 0.1 14.9312C0.0125 15.2375 0 16.0437 0 22.25C0 28.4562 0.0125 29.2625 0.1 29.5687C0.43125 30.6937 1.36875 31.6187 2.46875 31.9062C2.79375 31.9875 4.25625 32 14.75 32C27.8875 32 26.9875 32.025 27.7688 31.6062C28.25 31.35 28.85 30.75 29.1063 30.2687C29.5188 29.5062 29.5 29.8687 29.5 22.25C29.5 14.6312 29.5188 14.9937 29.1063 14.2312C28.85 13.75 28.25 13.15 27.7688 12.8937C26.9875 12.475 27.8938 12.5 14.7188 12.5062C4.5 12.5062 2.73125 12.5187 2.44375 12.6ZM7.21875 16.0437C7.55625 16.2187 7.80625 16.475 7.9625 16.8125C8.08125 17.0687 8.09375 17.2062 8.09375 18.2187C8.09375 19.5375 8.03125 19.775 7.6 20.175C7.19375 20.55 7.00625 20.5937 5.71875 20.5937C4.475 20.5937 4.2375 20.5375 3.85 20.15C3.4625 19.7625 3.40625 19.525 3.40625 18.25C3.40625 16.975 3.4625 16.7375 3.85 16.3562C4.26875 15.9375 4.55625 15.875 5.9375 15.9C6.8375 15.9125 7 15.9312 7.21875 16.0437ZM7.65625 25.9375C7.8125 25.975 7.98125 26.075 8.1125 26.2125C8.28125 26.4 8.3125 26.4812 8.3125 26.75C8.3125 27.0187 8.28125 27.1 8.1125 27.2875C7.98125 27.425 7.8125 27.525 7.65625 27.5625C7.33125 27.6375 4.41875 27.6375 4.09375 27.5625C3.9375 27.525 3.76875 27.425 3.64375 27.2875C3.46875 27.1 3.4375 27.0187 3.4375 26.75C3.4375 26.4812 3.46875 26.4 3.64375 26.2125C3.75625 26.0875 3.9375 25.9687 4.0625 25.9375C4.36875 25.8687 7.35 25.8625 7.65625 25.9375ZM16.6562 25.9375C16.8125 25.975 16.9813 26.075 17.1125 26.2125C17.2812 26.4 17.3125 26.4812 17.3125 26.75C17.3125 27.0187 17.2812 27.1 17.1125 27.2875C16.9813 27.425 16.8125 27.525 16.6562 27.5625C16.3313 27.6375 13.1687 27.6375 12.8438 27.5625C12.6875 27.525 12.5188 27.425 12.3938 27.2875C12.2188 27.1 12.1875 27.0187 12.1875 26.75C12.1875 26.4812 12.2188 26.4 12.3938 26.2125C12.5063 26.0875 12.6875 25.9687 12.8125 25.9375C13.1188 25.8687 16.35 25.8625 16.6562 25.9375ZM25.4062 25.9375C25.5625 25.975 25.7313 26.075 25.8625 26.2125C26.0312 26.4 26.0625 26.4812 26.0625 26.75C26.0625 27.0187 26.0312 27.1 25.8625 27.2875C25.7313 27.425 25.5625 27.525 25.4062 27.5625C25.0813 27.6375 22.1688 27.6375 21.8438 27.5625C21.6875 27.525 21.5188 27.425 21.3938 27.2875C21.2188 27.1 21.1875 27.0187 21.1875 26.75C21.1875 26.4812 21.2188 26.4 21.3938 26.2125C21.5063 26.0875 21.6875 25.9687 21.8125 25.9375C22.1187 25.8687 25.1 25.8625 25.4062 25.9375Z" fill="#008048"/>
</g>
<defs>
<clipPath id="clip0_1_46392">
<rect width="32" height="32" fill="white"/>
</clipPath>
</defs>
</svg>
